<svg xmlns="http://www.w3.org/2000/svg" viewBox="0 0 160 24" height="28" role="img"
  aria-labelledby="renamifyTitle">
  <title id="renamifyTitle">Renamify</title>

  <!-- Icon -->
  <g stroke="#000000" fill="none" stroke-width="2" stroke-linecap="round"
    stroke-linejoin="round">
    <path d="M14 14a2 2 0 0 1 2 2v4a2 2 0 0 1-2 2" />
    <path d="M14 4a2 2 0 0 1 2-2" />
    <path d="M16 10a2 2 0 0 1-2-2" />
    <path d="M20 14a2 2 0 0 1 2 2v4a2 2 0 0 1-2 2" />
    <path d="M20 2a2 2 0 0 1 2 2" />
    <path d="M22 8a2 2 0 0 1-2 2" />
    <path d="m3 7 3 3 3-3" />
    <path d="M6 10V5a 3 3 0 0 1 3-3h1" />
    <rect x="2" y="14" width="8" height="8" rx="2" />
  </g>

  <!-- Wordmark -->
  <text x="32" y="21"
    font-family="-apple-system,BlinkMacSystemFont,'Segoe UI',Roboto,Inter,Helvetica,Arial,'Apple Color Emoji','Segoe UI Emoji'"
    font-size="25"
    font-weight="700"
    fill="#000000">
    Renamify
  </text>
</svg>
